# xmcd
# 
# Track frame offsets:
#     150
#     14243
#     30457
#     45755
#     57179
#     75148
#     88461
#     105641
#     117778
#     130134
#     146017
#     157745
#     174843
#     189241
# 
# Disc length: 2701
# 
# Revision: 13
# Processed by: cddbd v1.5.2PL0 Copyright (c) Steve Scherf et al.
# Submitted via: BonkEnc v1.0.8
# 
DISCID=a10a8b0e
DTITLE=Edson e Hudson - Acústico Ao Vivo
DYEAR=2002
DGENRE=Sertaneja
TTITLE0=Azul
TTITLE1=Mil Razões Para Chorar
TTITLE2=Deixa Eu Te Amar
TTITLE3=Festa Louca
TTITLE4=Meu Anjo
TTITLE5=Me Bate, Me Xinga
TTITLE6=Cidadão
TTITLE7=Mulher, Cerveja E Viola
TTITLE8=A Força Da Paixão
TTITLE9=Saudade
TTITLE10=Zoião
TTITLE11=Jura
TTITLE12=Te Quero Pra Mim
TTITLE13=Pot-Pourri: Pagode Em Brasilia - Pagode - A Coisa Tá Feia
EXTD=
EXTT0=
EXTT1=
EXTT2=
EXTT3=
EXTT4=
EXTT5=
EXTT6=
EXTT7=
EXTT8=
EXTT9=
EXTT10=
EXTT11=
EXTT12=
EXTT13=
PLAYORDER=
